<?xml version="1.0" standalone="no"?><svg xmlns:xlink="http://www.w3.org/1999/xlink" xmlns="http://www.w3.org/2000/svg" viewBox="0 0 1200 650.0077681806921" preserveAspectRatio="xMaxYMax slice"><g transform="scale(1.6796066361258193)"><rect x="0" y="0" width="714.4615384615385" height="387" fill="#ffffff"/><rect x="126.51923076923077" y="7.4423076923076925" width="14.884615384615385" height="14.884615384615385" fill="#ffffff"/><rect x="215.82692307692307" y="7.4423076923076925" width="14.884615384615385" height="14.884615384615385" fill="#ffffff"/><circle cx="219.55" cy="11.16" r="3.72" fill="#918192"/><rect x="305.13461538461536" y="7.4423076923076925" width="14.884615384615385" height="14.884615384615385" fill="#ffffff"/><circle cx="308.85" cy="11.16" r="3.72" fill="#aea1ae"/><g transform="translate(305.13,14.88) scale(0.372) rotate(0)"><path fill-rule="evenodd" clip-rule="evenodd" d="M10 20C15.5228 20 20 15.5228 20 10C20 4.47715 15.5228 0 10 0C4.47715 0 0 4.47715 0 10C0 15.5228 4.47715 20 10 20ZM10 17C13.866 17 17 13.866 17 10C17 6.13401 13.866 3 10 3C6.13401 3 3 6.13401 3 10C3 13.866 6.13401 17 10 17Z" fill="#ffa5ba"/></g><rect x="334.90384615384613" y="7.4423076923076925" width="14.884615384615385" height="14.884615384615385" fill="#ffffff"/><circle cx="338.62" cy="18.6" r="3.72" fill="#ff7898"/><rect x="364.6730769230769" y="7.4423076923076925" width="14.884615384615385" height="14.884615384615385" fill="#ffffff"/><circle cx="368.39000000000004" cy="18.6" r="3.72" fill="#ffb4c6"/><g transform="translate(372.12,14.88) scale(0.372) rotate(0)"><path fill-rule="evenodd" clip-rule="evenodd" d="M10 20C15.5228 20 20 15.5228 20 10C20 4.47715 15.5228 0 10 0C4.47715 0 0 4.47715 0 10C0 15.5228 4.47715 20 10 20ZM10 17C13.866 17 17 13.866 17 10C17 6.13401 13.866 3 10 3C6.13401 3 3 6.13401 3 10C3 13.866 6.13401 17 10 17Z" fill="#ff426f"/></g><rect x="394.4423076923077" y="7.4423076923076925" width="14.884615384615385" height="14.884615384615385" fill="#ffffff"/><circle cx="398.16" cy="11.16" r="3.72" fill="#ff5e84"/><g transform="translate(401.88,7.44) scale(0.372) rotate(0)"><path fill-rule="evenodd" clip-rule="evenodd" d="M10 20C15.5228 20 20 15.5228 20 10C20 4.47715 15.5228 0 10 0C4.47715 0 0 4.47715 0 10C0 15.5228 4.47715 20 10 20ZM10 17C13.866 17 17 13.866 17 10C17 6.13401 13.866 3 10 3C6.13401 3 3 6.13401 3 10C3 13.866 6.13401 17 10 17Z" fill="#756076"/></g><rect x="483.75" y="7.4423076923076925" width="14.884615384615385" height="14.884615384615385" fill="#ffffff"/><circle cx="494.91" cy="11.16" r="3.72" fill="#ffffff"/><rect x="513.5192307692308" y="7.4423076923076925" width="14.884615384615385" height="14.884615384615385" fill="#ffffff"/><circle cx="517.24" cy="11.16" r="3.72" fill="#f1eff1"/><g transform="translate(520.96,14.88) scale(0.372) rotate(0)"><path fill-rule="evenodd" clip-rule="evenodd" d="M10 20C15.5228 20 20 15.5228 20 10C20 4.47715 15.5228 0 10 0C4.47715 0 0 4.47715 0 10C0 15.5228 4.47715 20 10 20ZM10 17C13.866 17 17 13.866 17 10C17 6.13401 13.866 3 10 3C6.13401 3 3 6.13401 3 10C3 13.866 6.13401 17 10 17Z" fill="#837085"/></g><rect x="543.2884615384615" y="7.4423076923076925" width="14.884615384615385" height="14.884615384615385" fill="#ffffff"/><circle cx="547.01" cy="11.16" r="3.72" fill="#ff7c9b"/><rect x="632.5961538461539" y="7.4423076923076925" width="14.884615384615385" height="14.884615384615385" fill="#ffffff"/><g transform="translate(640.04,14.88) scale(0.372) rotate(0)"><path fill-rule="evenodd" clip-rule="evenodd" d="M10 20C15.5228 20 20 15.5228 20 10C20 4.47715 15.5228 0 10 0C4.47715 0 0 4.47715 0 10C0 15.5228 4.47715 20 10 20ZM10 17C13.866 17 17 13.866 17 10C17 6.13401 13.866 3 10 3C6.13401 3 3 6.13401 3 10C3 13.866 6.13401 17 10 17Z" fill="#ffaabe"/></g><rect x="692.1346153846155" y="7.4423076923076925" width="14.884615384615385" height="14.884615384615385" fill="#ffffff"/><rect x="66.98076923076923" y="37.21153846153846" width="14.884615384615385" height="14.884615384615385" fill="#ffffff"/><g transform="translate(66.98,37.21) scale(0.372) rotate(0)"><path fill-rule="evenodd" clip-rule="evenodd" d="M10 20C15.5228 20 20 15.5228 20 10C20 4.47715 15.5228 0 10 0C4.47715 0 0 4.47715 0 10C0 15.5228 4.47715 20 10 20ZM10 17C13.866 17 17 13.866 17 10C17 6.13401 13.866 3 10 3C6.13401 3 3 6.13401 3 10C3 13.866 6.13401 17 10 17Z" fill="#afa2b0"/></g><g transform="translate(66.98,44.65) scale(0.372) rotate(0)"><path fill-rule="evenodd" clip-rule="evenodd" d="M10 20C15.5228 20 20 15.5228 20 10C20 4.47715 15.5228 0 10 0C4.47715 0 0 4.47715 0 10C0 15.5228 4.47715 20 10 20ZM10 17C13.866 17 17 13.866 17 10C17 6.13401 13.866 3 10 3C6.13401 3 3 6.13401 3 10C3 13.866 6.13401 17 10 17Z" fill="#ffa4ba"/></g><rect x="424.21153846153845" y="37.21153846153846" width="14.884615384615385" height="14.884615384615385" fill="#ffffff"/><rect x="573.0576923076924" y="37.21153846153846" width="14.884615384615385" height="14.884615384615385" fill="#ffffff"/><rect x="662.3653846153846" y="37.21153846153846" width="14.884615384615385" height="14.884615384615385" fill="#ffffff"/><circle cx="673.53" cy="40.93" r="3.72" fill="#89778a"/><rect x="692.1346153846155" y="37.21153846153846" width="14.884615384615385" height="14.884615384615385" fill="#ffffff"/><g transform="translate(692.13,44.65) scale(0.372) rotate(0)"><path fill-rule="evenodd" clip-rule="evenodd" d="M10 20C15.5228 20 20 15.5228 20 10C20 4.47715 15.5228 0 10 0C4.47715 0 0 4.47715 0 10C0 15.5228 4.47715 20 10 20ZM10 17C13.866 17 17 13.866 17 10C17 6.13401 13.866 3 10 3C6.13401 3 3 6.13401 3 10C3 13.866 6.13401 17 10 17Z" fill="#ff5f85"/></g><circle cx="703.3000000000001" cy="48.37" r="3.72" fill="#7a667b"/><rect x="186.0576923076923" y="66.98076923076923" width="14.884615384615385" height="14.884615384615385" fill="#ffffff"/><circle cx="197.22" cy="78.14" r="3.72" fill="#cdc5cd"/><rect x="245.59615384615384" y="66.98076923076923" width="14.884615384615385" height="14.884615384615385" fill="#ffffff"/><rect x="275.3653846153846" y="66.98076923076923" width="14.884615384615385" height="14.884615384615385" fill="#ffffff"/><g transform="translate(282.81,66.98) scale(0.372) rotate(0)"><path fill-rule="evenodd" clip-rule="evenodd" d="M10 20C15.5228 20 20 15.5228 20 10C20 4.47715 15.5228 0 10 0C4.47715 0 0 4.47715 0 10C0 15.5228 4.47715 20 10 20ZM10 17C13.866 17 17 13.866 17 10C17 6.13401 13.866 3 10 3C6.13401 3 3 6.13401 3 10C3 13.866 6.13401 17 10 17Z" fill="#ff7f9d"/></g><rect x="453.9807692307692" y="66.98076923076923" width="14.884615384615385" height="14.884615384615385" fill="#ffffff"/><g transform="translate(461.42,74.42) scale(0.372) rotate(0)"><path fill-rule="evenodd" clip-rule="evenodd" d="M10 20C15.5228 20 20 15.5228 20 10C20 4.47715 15.5228 0 10 0C4.47715 0 0 4.47715 0 10C0 15.5228 4.47715 20 10 20ZM10 17C13.866 17 17 13.866 17 10C17 6.13401 13.866 3 10 3C6.13401 3 3 6.13401 3 10C3 13.866 6.13401 17 10 17Z" fill="#ffebf0"/></g><rect x="483.75" y="66.98076923076923" width="14.884615384615385" height="14.884615384615385" fill="#ffffff"/><g transform="translate(491.19,66.98) scale(0.372) rotate(0)"><path fill-rule="evenodd" clip-rule="evenodd" d="M10 20C15.5228 20 20 15.5228 20 10C20 4.47715 15.5228 0 10 0C4.47715 0 0 4.47715 0 10C0 15.5228 4.47715 20 10 20ZM10 17C13.866 17 17 13.866 17 10C17 6.13401 13.866 3 10 3C6.13401 3 3 6.13401 3 10C3 13.866 6.13401 17 10 17Z" fill="#ffc6d4"/></g><rect x="573.0576923076924" y="66.98076923076923" width="14.884615384615385" height="14.884615384615385" fill="#ffffff"/><circle cx="576.78" cy="70.7" r="3.72" fill="#ff9eb5"/><g transform="translate(580.5,66.98) scale(0.372) rotate(0)"><path fill-rule="evenodd" clip-rule="evenodd" d="M10 20C15.5228 20 20 15.5228 20 10C20 4.47715 15.5228 0 10 0C4.47715 0 0 4.47715 0 10C0 15.5228 4.47715 20 10 20ZM10 17C13.866 17 17 13.866 17 10C17 6.13401 13.866 3 10 3C6.13401 3 3 6.13401 3 10C3 13.866 6.13401 17 10 17Z" fill="#ff809e"/></g><g transform="translate(573.06,74.42) scale(0.372) rotate(0)"><path fill-rule="evenodd" clip-rule="evenodd" d="M10 20C15.5228 20 20 15.5228 20 10C20 4.47715 15.5228 0 10 0C4.47715 0 0 4.47715 0 10C0 15.5228 4.47715 20 10 20ZM10 17C13.866 17 17 13.866 17 10C17 6.13401 13.866 3 10 3C6.13401 3 3 6.13401 3 10C3 13.866 6.13401 17 10 17Z" fill="#89788b"/></g><g transform="translate(580.5,74.42) scale(0.372) rotate(0)"><path fill-rule="evenodd" clip-rule="evenodd" d="M10 20C15.5228 20 20 15.5228 20 10C20 4.47715 15.5228 0 10 0C4.47715 0 0 4.47715 0 10C0 15.5228 4.47715 20 10 20ZM10 17C13.866 17 17 13.866 17 10C17 6.13401 13.866 3 10 3C6.13401 3 3 6.13401 3 10C3 13.866 6.13401 17 10 17Z" fill="#ffaabe"/></g><rect x="602.8269230769231" y="66.98076923076923" width="14.884615384615385" height="14.884615384615385" fill="#ffffff"/><rect x="37.21153846153846" y="96.75" width="14.884615384615385" height="14.884615384615385" fill="#ffffff"/><g transform="translate(44.65,96.75) scale(0.372) rotate(0)"><path fill-rule="evenodd" clip-rule="evenodd" d="M10 20C15.5228 20 20 15.5228 20 10C20 4.47715 15.5228 0 10 0C4.47715 0 0 4.47715 0 10C0 15.5228 4.47715 20 10 20ZM10 17C13.866 17 17 13.866 17 10C17 6.13401 13.866 3 10 3C6.13401 3 3 6.13401 3 10C3 13.866 6.13401 17 10 17Z" fill="#705a71"/></g><g transform="translate(44.65,104.19) scale(0.372) rotate(0)"><path fill-rule="evenodd" clip-rule="evenodd" d="M10 20C15.5228 20 20 15.5228 20 10C20 4.47715 15.5228 0 10 0C4.47715 0 0 4.47715 0 10C0 15.5228 4.47715 20 10 20ZM10 17C13.866 17 17 13.866 17 10C17 6.13401 13.866 3 10 3C6.13401 3 3 6.13401 3 10C3 13.866 6.13401 17 10 17Z" fill="#ff84a1"/></g><rect x="96.75" y="96.75" width="14.884615384615385" height="14.884615384615385" fill="#ffffff"/><circle cx="107.91" cy="107.91" r="3.72" fill="#b2a6b2"/><rect x="394.4423076923077" y="96.75" width="14.884615384615385" height="14.884615384615385" fill="#ffffff"/><circle cx="398.16" cy="107.91" r="3.72" fill="#8e7d8f"/><rect x="483.75" y="96.75" width="14.884615384615385" height="14.884615384615385" fill="#ffffff"/><circle cx="487.47" cy="107.91" r="3.72" fill="#938394"/><circle cx="494.91" cy="107.91" r="3.72" fill="#ff9cb3"/><rect x="543.2884615384615" y="96.75" width="14.884615384615385" height="14.884615384615385" fill="#ffffff"/><g transform="translate(543.29,104.19) scale(0.372) rotate(0)"><path fill-rule="evenodd" clip-rule="evenodd" d="M10 20C15.5228 20 20 15.5228 20 10C20 4.47715 15.5228 0 10 0C4.47715 0 0 4.47715 0 10C0 15.5228 4.47715 20 10 20ZM10 17C13.866 17 17 13.866 17 10C17 6.13401 13.866 3 10 3C6.13401 3 3 6.13401 3 10C3 13.866 6.13401 17 10 17Z" fill="#ff4a75"/></g><g transform="translate(550.73,104.19) scale(0.372) rotate(0)"><path fill-rule="evenodd" clip-rule="evenodd" d="M10 20C15.5228 20 20 15.5228 20 10C20 4.47715 15.5228 0 10 0C4.47715 0 0 4.47715 0 10C0 15.5228 4.47715 20 10 20ZM10 17C13.866 17 17 13.866 17 10C17 6.13401 13.866 3 10 3C6.13401 3 3 6.13401 3 10C3 13.866 6.13401 17 10 17Z" fill="#ffb8c9"/></g><rect x="632.5961538461539" y="96.75" width="14.884615384615385" height="14.884615384615385" fill="#ffffff"/><rect x="7.4423076923076925" y="126.51923076923077" width="14.884615384615385" height="14.884615384615385" fill="#ffffff"/><circle cx="18.6" cy="137.68" r="3.72" fill="#482c4a"/><rect x="186.0576923076923" y="126.51923076923077" width="14.884615384615385" height="14.884615384615385" fill="#ffffff"/><circle cx="197.22" cy="130.24" r="3.72" fill="#ff99b1"/><rect x="275.3653846153846" y="126.51923076923077" width="14.884615384615385" height="14.884615384615385" fill="#ffffff"/><rect x="513.5192307692308" y="126.51923076923077" width="14.884615384615385" height="14.884615384615385" fill="#ffffff"/><rect x="543.2884615384615" y="126.51923076923077" width="14.884615384615385" height="14.884615384615385" fill="#ffffff"/><circle cx="554.45" cy="137.68" r="3.72" fill="#ff5980"/><rect x="573.0576923076924" y="126.51923076923077" width="14.884615384615385" height="14.884615384615385" fill="#ffffff"/><circle cx="584.22" cy="137.68" r="3.72" fill="#ff9bb2"/><rect x="7.4423076923076925" y="156.28846153846152" width="14.884615384615385" height="14.884615384615385" fill="#ffffff"/><g transform="translate(7.44,156.29) scale(0.372) rotate(0)"><path fill-rule="evenodd" clip-rule="evenodd" d="M10 20C15.5228 20 20 15.5228 20 10C20 4.47715 15.5228 0 10 0C4.47715 0 0 4.47715 0 10C0 15.5228 4.47715 20 10 20ZM10 17C13.866 17 17 13.866 17 10C17 6.13401 13.866 3 10 3C6.13401 3 3 6.13401 3 10C3 13.866 6.13401 17 10 17Z" fill="#baafbb"/></g><g transform="translate(14.88,156.29) scale(0.372) rotate(0)"><path fill-rule="evenodd" clip-rule="evenodd" d="M10 20C15.5228 20 20 15.5228 20 10C20 4.47715 15.5228 0 10 0C4.47715 0 0 4.47715 0 10C0 15.5228 4.47715 20 10 20ZM10 17C13.866 17 17 13.866 17 10C17 6.13401 13.866 3 10 3C6.13401 3 3 6.13401 3 10C3 13.866 6.13401 17 10 17Z" fill="#ff406d"/></g><rect x="305.13461538461536" y="156.28846153846152" width="14.884615384615385" height="14.884615384615385" fill="#ffffff"/><circle cx="316.3" cy="160.01" r="3.72" fill="#e0dce1"/><rect x="424.21153846153845" y="156.28846153846152" width="14.884615384615385" height="14.884615384615385" fill="#ffffff"/><rect x="573.0576923076924" y="156.28846153846152" width="14.884615384615385" height="14.884615384615385" fill="#ffffff"/><circle cx="576.78" cy="160.01" r="3.72" fill="#ff93ac"/><g transform="translate(580.5,163.73) scale(0.372) rotate(0)"><path fill-rule="evenodd" clip-rule="evenodd" d="M10 20C15.5228 20 20 15.5228 20 10C20 4.47715 15.5228 0 10 0C4.47715 0 0 4.47715 0 10C0 15.5228 4.47715 20 10 20ZM10 17C13.866 17 17 13.866 17 10C17 6.13401 13.866 3 10 3C6.13401 3 3 6.13401 3 10C3 13.866 6.13401 17 10 17Z" fill="#ff7b9b"/></g><rect x="7.4423076923076925" y="186.0576923076923" width="14.884615384615385" height="14.884615384615385" fill="#ffffff"/><circle cx="11.16" cy="189.78" r="3.72" fill="#9c8d9d"/><circle cx="18.6" cy="197.22" r="3.72" fill="#715c73"/><rect x="37.21153846153846" y="186.0576923076923" width="14.884615384615385" height="14.884615384615385" fill="#ffffff"/><g transform="translate(37.21,193.5) scale(0.372) rotate(0)"><path fill-rule="evenodd" clip-rule="evenodd" d="M10 20C15.5228 20 20 15.5228 20 10C20 4.47715 15.5228 0 10 0C4.47715 0 0 4.47715 0 10C0 15.5228 4.47715 20 10 20ZM10 17C13.866 17 17 13.866 17 10C17 6.13401 13.866 3 10 3C6.13401 3 3 6.13401 3 10C3 13.866 6.13401 17 10 17Z" fill="#fffafb"/></g><circle cx="48.37" cy="197.22" r="3.72" fill="#573e59"/><rect x="66.98076923076923" y="186.0576923076923" width="14.884615384615385" height="14.884615384615385" fill="#ffffff"/><circle cx="70.7" cy="189.78" r="3.72" fill="#9e909f"/><g transform="translate(74.42,193.5) scale(0.372) rotate(0)"><path fill-rule="evenodd" clip-rule="evenodd" d="M10 20C15.5228 20 20 15.5228 20 10C20 4.47715 15.5228 0 10 0C4.47715 0 0 4.47715 0 10C0 15.5228 4.47715 20 10 20ZM10 17C13.866 17 17 13.866 17 10C17 6.13401 13.866 3 10 3C6.13401 3 3 6.13401 3 10C3 13.866 6.13401 17 10 17Z" fill="#ff688c"/></g><rect x="96.75" y="186.0576923076923" width="14.884615384615385" height="14.884615384615385" fill="#ffffff"/><circle cx="107.91" cy="189.78" r="3.72" fill="#ffbbcb"/><g transform="translate(96.75,193.5) scale(0.372) rotate(0)"><path fill-rule="evenodd" clip-rule="evenodd" d="M10 20C15.5228 20 20 15.5228 20 10C20 4.47715 15.5228 0 10 0C4.47715 0 0 4.47715 0 10C0 15.5228 4.47715 20 10 20ZM10 17C13.866 17 17 13.866 17 10C17 6.13401 13.866 3 10 3C6.13401 3 3 6.13401 3 10C3 13.866 6.13401 17 10 17Z" fill="#ffd4de"/></g><rect x="156.28846153846152" y="186.0576923076923" width="14.884615384615385" height="14.884615384615385" fill="#ffffff"/><g transform="translate(163.73,193.5) scale(0.372) rotate(0)"><path fill-rule="evenodd" clip-rule="evenodd" d="M10 20C15.5228 20 20 15.5228 20 10C20 4.47715 15.5228 0 10 0C4.47715 0 0 4.47715 0 10C0 15.5228 4.47715 20 10 20ZM10 17C13.866 17 17 13.866 17 10C17 6.13401 13.866 3 10 3C6.13401 3 3 6.13401 3 10C3 13.866 6.13401 17 10 17Z" fill="#cac2ca"/></g><rect x="186.0576923076923" y="186.0576923076923" width="14.884615384615385" height="14.884615384615385" fill="#ffffff"/><g transform="translate(193.5,193.5) scale(0.372) rotate(0)"><path fill-rule="evenodd" clip-rule="evenodd" d="M10 20C15.5228 20 20 15.5228 20 10C20 4.47715 15.5228 0 10 0C4.47715 0 0 4.47715 0 10C0 15.5228 4.47715 20 10 20ZM10 17C13.866 17 17 13.866 17 10C17 6.13401 13.866 3 10 3C6.13401 3 3 6.13401 3 10C3 13.866 6.13401 17 10 17Z" fill="#ffecf0"/></g><rect x="215.82692307692307" y="186.0576923076923" width="14.884615384615385" height="14.884615384615385" fill="#ffffff"/><g transform="translate(223.27,193.5) scale(0.372) rotate(0)"><path fill-rule="evenodd" clip-rule="evenodd" d="M10 20C15.5228 20 20 15.5228 20 10C20 4.47715 15.5228 0 10 0C4.47715 0 0 4.47715 0 10C0 15.5228 4.47715 20 10 20ZM10 17C13.866 17 17 13.866 17 10C17 6.13401 13.866 3 10 3C6.13401 3 3 6.13401 3 10C3 13.866 6.13401 17 10 17Z" fill="#ff6d8f"/></g><rect x="275.3653846153846" y="186.0576923076923" width="14.884615384615385" height="14.884615384615385" fill="#ffffff"/><circle cx="286.53000000000003" cy="197.22" r="3.72" fill="#b9aeb9"/><rect x="364.6730769230769" y="186.0576923076923" width="14.884615384615385" height="14.884615384615385" fill="#ffffff"/><rect x="394.4423076923077" y="186.0576923076923" width="14.884615384615385" height="14.884615384615385" fill="#ffffff"/><circle cx="398.16" cy="189.78" r="3.72" fill="#a496a5"/><rect x="453.9807692307692" y="186.0576923076923" width="14.884615384615385" height="14.884615384615385" fill="#ffffff"/><circle cx="457.70000000000005" cy="189.78" r="3.72" fill="#ff91ab"/><rect x="573.0576923076924" y="186.0576923076923" width="14.884615384615385" height="14.884615384615385" fill="#ffffff"/><circle cx="584.22" cy="197.22" r="3.72" fill="#472b49"/><rect x="662.3653846153846" y="186.0576923076923" width="14.884615384615385" height="14.884615384615385" fill="#ffffff"/><g transform="translate(669.81,186.06) scale(0.372) rotate(0)"><path fill-rule="evenodd" clip-rule="evenodd" d="M10 20C15.5228 20 20 15.5228 20 10C20 4.47715 15.5228 0 10 0C4.47715 0 0 4.47715 0 10C0 15.5228 4.47715 20 10 20ZM10 17C13.866 17 17 13.866 17 10C17 6.13401 13.866 3 10 3C6.13401 3 3 6.13401 3 10C3 13.866 6.13401 17 10 17Z" fill="#b7acb8"/></g><rect x="126.51923076923077" y="215.82692307692307" width="14.884615384615385" height="14.884615384615385" fill="#ffffff"/><rect x="215.82692307692307" y="215.82692307692307" width="14.884615384615385" height="14.884615384615385" fill="#ffffff"/><rect x="275.3653846153846" y="215.82692307692307" width="14.884615384615385" height="14.884615384615385" fill="#ffffff"/><rect x="334.90384615384613" y="215.82692307692307" width="14.884615384615385" height="14.884615384615385" fill="#ffffff"/><g transform="translate(334.9,215.83) scale(0.372) rotate(0)"><path fill-rule="evenodd" clip-rule="evenodd" d="M10 20C15.5228 20 20 15.5228 20 10C20 4.47715 15.5228 0 10 0C4.47715 0 0 4.47715 0 10C0 15.5228 4.47715 20 10 20ZM10 17C13.866 17 17 13.866 17 10C17 6.13401 13.866 3 10 3C6.13401 3 3 6.13401 3 10C3 13.866 6.13401 17 10 17Z" fill="#f1eef1"/></g><g transform="translate(334.9,223.27) scale(0.372) rotate(0)"><path fill-rule="evenodd" clip-rule="evenodd" d="M10 20C15.5228 20 20 15.5228 20 10C20 4.47715 15.5228 0 10 0C4.47715 0 0 4.47715 0 10C0 15.5228 4.47715 20 10 20ZM10 17C13.866 17 17 13.866 17 10C17 6.13401 13.866 3 10 3C6.13401 3 3 6.13401 3 10C3 13.866 6.13401 17 10 17Z" fill="#6f5970"/></g><rect x="394.4423076923077" y="215.82692307692307" width="14.884615384615385" height="14.884615384615385" fill="#ffffff"/><g transform="translate(401.88,215.83) scale(0.372) rotate(0)"><path fill-rule="evenodd" clip-rule="evenodd" d="M10 20C15.5228 20 20 15.5228 20 10C20 4.47715 15.5228 0 10 0C4.47715 0 0 4.47715 0 10C0 15.5228 4.47715 20 10 20ZM10 17C13.866 17 17 13.866 17 10C17 6.13401 13.866 3 10 3C6.13401 3 3 6.13401 3 10C3 13.866 6.13401 17 10 17Z" fill="#fffbfc"/></g><rect x="424.21153846153845" y="215.82692307692307" width="14.884615384615385" height="14.884615384615385" fill="#ffffff"/><circle cx="427.93" cy="219.55" r="3.72" fill="#ff517b"/><g transform="translate(431.65,215.83) scale(0.372) rotate(0)"><path fill-rule="evenodd" clip-rule="evenodd" d="M10 20C15.5228 20 20 15.5228 20 10C20 4.47715 15.5228 0 10 0C4.47715 0 0 4.47715 0 10C0 15.5228 4.47715 20 10 20ZM10 17C13.866 17 17 13.866 17 10C17 6.13401 13.866 3 10 3C6.13401 3 3 6.13401 3 10C3 13.866 6.13401 17 10 17Z" fill="#faf9fa"/></g><rect x="453.9807692307692" y="215.82692307692307" width="14.884615384615385" height="14.884615384615385" fill="#ffffff"/><g transform="translate(453.98,215.83) scale(0.372) rotate(0)"><path fill-rule="evenodd" clip-rule="evenodd" d="M10 20C15.5228 20 20 15.5228 20 10C20 4.47715 15.5228 0 10 0C4.47715 0 0 4.47715 0 10C0 15.5228 4.47715 20 10 20ZM10 17C13.866 17 17 13.866 17 10C17 6.13401 13.866 3 10 3C6.13401 3 3 6.13401 3 10C3 13.866 6.13401 17 10 17Z" fill="#88768a"/></g><g transform="translate(461.42,223.27) scale(0.372) rotate(0)"><path fill-rule="evenodd" clip-rule="evenodd" d="M10 20C15.5228 20 20 15.5228 20 10C20 4.47715 15.5228 0 10 0C4.47715 0 0 4.47715 0 10C0 15.5228 4.47715 20 10 20ZM10 17C13.866 17 17 13.866 17 10C17 6.13401 13.866 3 10 3C6.13401 3 3 6.13401 3 10C3 13.866 6.13401 17 10 17Z" fill="#4c314e"/></g><rect x="543.2884615384615" y="215.82692307692307" width="14.884615384615385" height="14.884615384615385" fill="#ffffff"/><rect x="602.8269230769231" y="215.82692307692307" width="14.884615384615385" height="14.884615384615385" fill="#ffffff"/><rect x="662.3653846153846" y="215.82692307692307" width="14.884615384615385" height="14.884615384615385" fill="#ffffff"/><rect x="692.1346153846155" y="215.82692307692307" width="14.884615384615385" height="14.884615384615385" fill="#ffffff"/><rect x="96.75" y="245.59615384615384" width="14.884615384615385" height="14.884615384615385" fill="#ffffff"/><circle cx="100.47" cy="249.32" r="3.72" fill="#7a657b"/><rect x="156.28846153846152" y="245.59615384615384" width="14.884615384615385" height="14.884615384615385" fill="#ffffff"/><circle cx="160.01" cy="249.32" r="3.72" fill="#ff3c6a"/><rect x="215.82692307692307" y="245.59615384615384" width="14.884615384615385" height="14.884615384615385" fill="#ffffff"/><circle cx="219.55" cy="249.32" r="3.72" fill="#ff7a99"/><g transform="translate(223.27,245.6) scale(0.372) rotate(0)"><path fill-rule="evenodd" clip-rule="evenodd" d="M10 20C15.5228 20 20 15.5228 20 10C20 4.47715 15.5228 0 10 0C4.47715 0 0 4.47715 0 10C0 15.5228 4.47715 20 10 20ZM10 17C13.866 17 17 13.866 17 10C17 6.13401 13.866 3 10 3C6.13401 3 3 6.13401 3 10C3 13.866 6.13401 17 10 17Z" fill="#ada0ae"/></g><g transform="translate(215.83,253.04) scale(0.372) rotate(0)"><path fill-rule="evenodd" clip-rule="evenodd" d="M10 20C15.5228 20 20 15.5228 20 10C20 4.47715 15.5228 0 10 0C4.47715 0 0 4.47715 0 10C0 15.5228 4.47715 20 10 20ZM10 17C13.866 17 17 13.866 17 10C17 6.13401 13.866 3 10 3C6.13401 3 3 6.13401 3 10C3 13.866 6.13401 17 10 17Z" fill="#edeaed"/></g><rect x="245.59615384615384" y="245.59615384615384" width="14.884615384615385" height="14.884615384615385" fill="#ffffff"/><circle cx="256.76" cy="256.76" r="3.72" fill="#624a63"/><rect x="662.3653846153846" y="245.59615384615384" width="14.884615384615385" height="14.884615384615385" fill="#ffffff"/><rect x="692.1346153846155" y="245.59615384615384" width="14.884615384615385" height="14.884615384615385" fill="#ffffff"/><circle cx="695.85" cy="249.32" r="3.72" fill="#f3f2f4"/><g transform="translate(699.58,245.6) scale(0.372) rotate(0)"><path fill-rule="evenodd" clip-rule="evenodd" d="M10 20C15.5228 20 20 15.5228 20 10C20 4.47715 15.5228 0 10 0C4.47715 0 0 4.47715 0 10C0 15.5228 4.47715 20 10 20ZM10 17C13.866 17 17 13.866 17 10C17 6.13401 13.866 3 10 3C6.13401 3 3 6.13401 3 10C3 13.866 6.13401 17 10 17Z" fill="#fffdfe"/></g><rect x="305.13461538461536" y="275.3653846153846" width="14.884615384615385" height="14.884615384615385" fill="#ffffff"/><circle cx="316.3" cy="286.53000000000003" r="3.72" fill="#ff7d9c"/><rect x="394.4423076923077" y="275.3653846153846" width="14.884615384615385" height="14.884615384615385" fill="#ffffff"/><g transform="translate(394.44,282.81) scale(0.372) rotate(0)"><path fill-rule="evenodd" clip-rule="evenodd" d="M10 20C15.5228 20 20 15.5228 20 10C20 4.47715 15.5228 0 10 0C4.47715 0 0 4.47715 0 10C0 15.5228 4.47715 20 10 20ZM10 17C13.866 17 17 13.866 17 10C17 6.13401 13.866 3 10 3C6.13401 3 3 6.13401 3 10C3 13.866 6.13401 17 10 17Z" fill="#ff4672"/></g><rect x="424.21153846153845" y="275.3653846153846" width="14.884615384615385" height="14.884615384615385" fill="#ffffff"/><g transform="translate(424.21,275.37) scale(0.372) rotate(0)"><path fill-rule="evenodd" clip-rule="evenodd" d="M10 20C15.5228 20 20 15.5228 20 10C20 4.47715 15.5228 0 10 0C4.47715 0 0 4.47715 0 10C0 15.5228 4.47715 20 10 20ZM10 17C13.866 17 17 13.866 17 10C17 6.13401 13.866 3 10 3C6.13401 3 3 6.13401 3 10C3 13.866 6.13401 17 10 17Z" fill="#89788b"/></g><g transform="translate(431.65,275.37) scale(0.372) rotate(0)"><path fill-rule="evenodd" clip-rule="evenodd" d="M10 20C15.5228 20 20 15.5228 20 10C20 4.47715 15.5228 0 10 0C4.47715 0 0 4.47715 0 10C0 15.5228 4.47715 20 10 20ZM10 17C13.866 17 17 13.866 17 10C17 6.13401 13.866 3 10 3C6.13401 3 3 6.13401 3 10C3 13.866 6.13401 17 10 17Z" fill="#d5cfd5"/></g><g transform="translate(424.21,282.81) scale(0.372) rotate(0)"><path fill-rule="evenodd" clip-rule="evenodd" d="M10 20C15.5228 20 20 15.5228 20 10C20 4.47715 15.5228 0 10 0C4.47715 0 0 4.47715 0 10C0 15.5228 4.47715 20 10 20ZM10 17C13.866 17 17 13.866 17 10C17 6.13401 13.866 3 10 3C6.13401 3 3 6.13401 3 10C3 13.866 6.13401 17 10 17Z" fill="#7a657b"/></g><circle cx="435.37" cy="286.53000000000003" r="3.72" fill="#ff678b"/><rect x="573.0576923076924" y="275.3653846153846" width="14.884615384615385" height="14.884615384615385" fill="#ffffff"/><circle cx="576.78" cy="279.09000000000003" r="3.72" fill="#ffa9bd"/><circle cx="576.78" cy="286.53000000000003" r="3.72" fill="#c3bac4"/><rect x="602.8269230769231" y="275.3653846153846" width="14.884615384615385" height="14.884615384615385" fill="#ffffff"/><circle cx="613.99" cy="279.09000000000003" r="3.72" fill="#ff6086"/><rect x="662.3653846153846" y="275.3653846153846" width="14.884615384615385" height="14.884615384615385" fill="#ffffff"/><g transform="translate(662.37,282.81) scale(0.372) rotate(0)"><path fill-rule="evenodd" clip-rule="evenodd" d="M10 20C15.5228 20 20 15.5228 20 10C20 4.47715 15.5228 0 10 0C4.47715 0 0 4.47715 0 10C0 15.5228 4.47715 20 10 20ZM10 17C13.866 17 17 13.866 17 10C17 6.13401 13.866 3 10 3C6.13401 3 3 6.13401 3 10C3 13.866 6.13401 17 10 17Z" fill="#ffebf0"/></g><rect x="692.1346153846155" y="275.3653846153846" width="14.884615384615385" height="14.884615384615385" fill="#ffffff"/><g transform="translate(692.13,275.37) scale(0.372) rotate(0)"><path fill-rule="evenodd" clip-rule="evenodd" d="M10 20C15.5228 20 20 15.5228 20 10C20 4.47715 15.5228 0 10 0C4.47715 0 0 4.47715 0 10C0 15.5228 4.47715 20 10 20ZM10 17C13.866 17 17 13.866 17 10C17 6.13401 13.866 3 10 3C6.13401 3 3 6.13401 3 10C3 13.866 6.13401 17 10 17Z" fill="#cbc3cb"/></g><rect x="96.75" y="305.13461538461536" width="14.884615384615385" height="14.884615384615385" fill="#ffffff"/><circle cx="107.91" cy="308.85" r="3.72" fill="#ff577f"/><rect x="334.90384615384613" y="305.13461538461536" width="14.884615384615385" height="14.884615384615385" fill="#ffffff"/><circle cx="338.62" cy="308.85" r="3.72" fill="#ffecf0"/><g transform="translate(342.35,305.13) scale(0.372) rotate(0)"><path fill-rule="evenodd" clip-rule="evenodd" d="M10 20C15.5228 20 20 15.5228 20 10C20 4.47715 15.5228 0 10 0C4.47715 0 0 4.47715 0 10C0 15.5228 4.47715 20 10 20ZM10 17C13.866 17 17 13.866 17 10C17 6.13401 13.866 3 10 3C6.13401 3 3 6.13401 3 10C3 13.866 6.13401 17 10 17Z" fill="#847286"/></g><rect x="424.21153846153845" y="305.13461538461536" width="14.884615384615385" height="14.884615384615385" fill="#ffffff"/><g transform="translate(424.21,312.58) scale(0.372) rotate(0)"><path fill-rule="evenodd" clip-rule="evenodd" d="M10 20C15.5228 20 20 15.5228 20 10C20 4.47715 15.5228 0 10 0C4.47715 0 0 4.47715 0 10C0 15.5228 4.47715 20 10 20ZM10 17C13.866 17 17 13.866 17 10C17 6.13401 13.866 3 10 3C6.13401 3 3 6.13401 3 10C3 13.866 6.13401 17 10 17Z" fill="#ff5f85"/></g><rect x="632.5961538461539" y="305.13461538461536" width="14.884615384615385" height="14.884615384615385" fill="#ffffff"/><g transform="translate(640.04,305.13) scale(0.372) rotate(0)"><path fill-rule="evenodd" clip-rule="evenodd" d="M10 20C15.5228 20 20 15.5228 20 10C20 4.47715 15.5228 0 10 0C4.47715 0 0 4.47715 0 10C0 15.5228 4.47715 20 10 20ZM10 17C13.866 17 17 13.866 17 10C17 6.13401 13.866 3 10 3C6.13401 3 3 6.13401 3 10C3 13.866 6.13401 17 10 17Z" fill="#664f68"/></g><g transform="translate(632.6,312.58) scale(0.372) rotate(0)"><path fill-rule="evenodd" clip-rule="evenodd" d="M10 20C15.5228 20 20 15.5228 20 10C20 4.47715 15.5228 0 10 0C4.47715 0 0 4.47715 0 10C0 15.5228 4.47715 20 10 20ZM10 17C13.866 17 17 13.866 17 10C17 6.13401 13.866 3 10 3C6.13401 3 3 6.13401 3 10C3 13.866 6.13401 17 10 17Z" fill="#a89ba9"/></g><g transform="translate(640.04,312.58) scale(0.372) rotate(0)"><path fill-rule="evenodd" clip-rule="evenodd" d="M10 20C15.5228 20 20 15.5228 20 10C20 4.47715 15.5228 0 10 0C4.47715 0 0 4.47715 0 10C0 15.5228 4.47715 20 10 20ZM10 17C13.866 17 17 13.866 17 10C17 6.13401 13.866 3 10 3C6.13401 3 3 6.13401 3 10C3 13.866 6.13401 17 10 17Z" fill="#ffc8d5"/></g><rect x="37.21153846153846" y="334.90384615384613" width="14.884615384615385" height="14.884615384615385" fill="#ffffff"/><g transform="translate(37.21,334.9) scale(0.372) rotate(0)"><path fill-rule="evenodd" clip-rule="evenodd" d="M10 20C15.5228 20 20 15.5228 20 10C20 4.47715 15.5228 0 10 0C4.47715 0 0 4.47715 0 10C0 15.5228 4.47715 20 10 20ZM10 17C13.866 17 17 13.866 17 10C17 6.13401 13.866 3 10 3C6.13401 3 3 6.13401 3 10C3 13.866 6.13401 17 10 17Z" fill="#ffb2c4"/></g><rect x="96.75" y="334.90384615384613" width="14.884615384615385" height="14.884615384615385" fill="#ffffff"/><circle cx="100.47" cy="338.62" r="3.72" fill="#ffa2b8"/><circle cx="107.91" cy="338.62" r="3.72" fill="#ff577f"/><g transform="translate(104.19,342.35) scale(0.372) rotate(0)"><path fill-rule="evenodd" clip-rule="evenodd" d="M10 20C15.5228 20 20 15.5228 20 10C20 4.47715 15.5228 0 10 0C4.47715 0 0 4.47715 0 10C0 15.5228 4.47715 20 10 20ZM10 17C13.866 17 17 13.866 17 10C17 6.13401 13.866 3 10 3C6.13401 3 3 6.13401 3 10C3 13.866 6.13401 17 10 17Z" fill="#ff6c8f"/></g><rect x="245.59615384615384" y="334.90384615384613" width="14.884615384615385" height="14.884615384615385" fill="#ffffff"/><circle cx="256.76" cy="338.62" r="3.72" fill="#ff82a0"/><rect x="275.3653846153846" y="334.90384615384613" width="14.884615384615385" height="14.884615384615385" fill="#ffffff"/><g transform="translate(275.37,342.35) scale(0.372) rotate(0)"><path fill-rule="evenodd" clip-rule="evenodd" d="M10 20C15.5228 20 20 15.5228 20 10C20 4.47715 15.5228 0 10 0C4.47715 0 0 4.47715 0 10C0 15.5228 4.47715 20 10 20ZM10 17C13.866 17 17 13.866 17 10C17 6.13401 13.866 3 10 3C6.13401 3 3 6.13401 3 10C3 13.866 6.13401 17 10 17Z" fill="#ff99b1"/></g><rect x="364.6730769230769" y="334.90384615384613" width="14.884615384615385" height="14.884615384615385" fill="#ffffff"/><circle cx="375.84000000000003" cy="346.07000000000005" r="3.72" fill="#6b556d"/><rect x="394.4423076923077" y="334.90384615384613" width="14.884615384615385" height="14.884615384615385" fill="#ffffff"/><g transform="translate(401.88,334.9) scale(0.372) rotate(0)"><path fill-rule="evenodd" clip-rule="evenodd" d="M10 20C15.5228 20 20 15.5228 20 10C20 4.47715 15.5228 0 10 0C4.47715 0 0 4.47715 0 10C0 15.5228 4.47715 20 10 20ZM10 17C13.866 17 17 13.866 17 10C17 6.13401 13.866 3 10 3C6.13401 3 3 6.13401 3 10C3 13.866 6.13401 17 10 17Z" fill="#ff809e"/></g><g transform="translate(394.44,342.35) scale(0.372) rotate(0)"><path fill-rule="evenodd" clip-rule="evenodd" d="M10 20C15.5228 20 20 15.5228 20 10C20 4.47715 15.5228 0 10 0C4.47715 0 0 4.47715 0 10C0 15.5228 4.47715 20 10 20ZM10 17C13.866 17 17 13.866 17 10C17 6.13401 13.866 3 10 3C6.13401 3 3 6.13401 3 10C3 13.866 6.13401 17 10 17Z" fill="#ffbacb"/></g><rect x="453.9807692307692" y="334.90384615384613" width="14.884615384615385" height="14.884615384615385" fill="#ffffff"/><rect x="543.2884615384615" y="334.90384615384613" width="14.884615384615385" height="14.884615384615385" fill="#ffffff"/><g transform="translate(550.73,334.9) scale(0.372) rotate(0)"><path fill-rule="evenodd" clip-rule="evenodd" d="M10 20C15.5228 20 20 15.5228 20 10C20 4.47715 15.5228 0 10 0C4.47715 0 0 4.47715 0 10C0 15.5228 4.47715 20 10 20ZM10 17C13.866 17 17 13.866 17 10C17 6.13401 13.866 3 10 3C6.13401 3 3 6.13401 3 10C3 13.866 6.13401 17 10 17Z" fill="#ffceda"/></g><circle cx="547.01" cy="346.07000000000005" r="3.72" fill="#eae7ea"/><rect x="602.8269230769231" y="334.90384615384613" width="14.884615384615385" height="14.884615384615385" fill="#ffffff"/><g transform="translate(602.83,334.9) scale(0.372) rotate(0)"><path fill-rule="evenodd" clip-rule="evenodd" d="M10 20C15.5228 20 20 15.5228 20 10C20 4.47715 15.5228 0 10 0C4.47715 0 0 4.47715 0 10C0 15.5228 4.47715 20 10 20ZM10 17C13.866 17 17 13.866 17 10C17 6.13401 13.866 3 10 3C6.13401 3 3 6.13401 3 10C3 13.866 6.13401 17 10 17Z" fill="#c0b6c0"/></g><g transform="translate(610.27,334.9) scale(0.372) rotate(0)"><path fill-rule="evenodd" clip-rule="evenodd" d="M10 20C15.5228 20 20 15.5228 20 10C20 4.47715 15.5228 0 10 0C4.47715 0 0 4.47715 0 10C0 15.5228 4.47715 20 10 20ZM10 17C13.866 17 17 13.866 17 10C17 6.13401 13.866 3 10 3C6.13401 3 3 6.13401 3 10C3 13.866 6.13401 17 10 17Z" fill="#ff6388"/></g><g transform="translate(610.27,342.35) scale(0.372) rotate(0)"><path fill-rule="evenodd" clip-rule="evenodd" d="M10 20C15.5228 20 20 15.5228 20 10C20 4.47715 15.5228 0 10 0C4.47715 0 0 4.47715 0 10C0 15.5228 4.47715 20 10 20ZM10 17C13.866 17 17 13.866 17 10C17 6.13401 13.866 3 10 3C6.13401 3 3 6.13401 3 10C3 13.866 6.13401 17 10 17Z" fill="#ff4b75"/></g><rect x="632.5961538461539" y="334.90384615384613" width="14.884615384615385" height="14.884615384615385" fill="#ffffff"/><g transform="translate(632.6,342.35) scale(0.372) rotate(0)"><path fill-rule="evenodd" clip-rule="evenodd" d="M10 20C15.5228 20 20 15.5228 20 10C20 4.47715 15.5228 0 10 0C4.47715 0 0 4.47715 0 10C0 15.5228 4.47715 20 10 20ZM10 17C13.866 17 17 13.866 17 10C17 6.13401 13.866 3 10 3C6.13401 3 3 6.13401 3 10C3 13.866 6.13401 17 10 17Z" fill="#a193a2"/></g><rect x="662.3653846153846" y="334.90384615384613" width="14.884615384615385" height="14.884615384615385" fill="#ffffff"/><rect x="692.1346153846155" y="334.90384615384613" width="14.884615384615385" height="14.884615384615385" fill="#ffffff"/><rect x="37.21153846153846" y="364.6730769230769" width="14.884615384615385" height="14.884615384615385" fill="#ffffff"/><g transform="translate(37.21,364.67) scale(0.372) rotate(0)"><path fill-rule="evenodd" clip-rule="evenodd" d="M10 20C15.5228 20 20 15.5228 20 10C20 4.47715 15.5228 0 10 0C4.47715 0 0 4.47715 0 10C0 15.5228 4.47715 20 10 20ZM10 17C13.866 17 17 13.866 17 10C17 6.13401 13.866 3 10 3C6.13401 3 3 6.13401 3 10C3 13.866 6.13401 17 10 17Z" fill="#725d74"/></g><circle cx="40.93" cy="375.84000000000003" r="3.72" fill="#ffb9ca"/><rect x="96.75" y="364.6730769230769" width="14.884615384615385" height="14.884615384615385" fill="#ffffff"/><circle cx="107.91" cy="368.39000000000004" r="3.72" fill="#a79aa8"/><circle cx="100.47" cy="375.84000000000003" r="3.72" fill="#d2cbd3"/><g transform="translate(104.19,372.12) scale(0.372) rotate(0)"><path fill-rule="evenodd" clip-rule="evenodd" d="M10 20C15.5228 20 20 15.5228 20 10C20 4.47715 15.5228 0 10 0C4.47715 0 0 4.47715 0 10C0 15.5228 4.47715 20 10 20ZM10 17C13.866 17 17 13.866 17 10C17 6.13401 13.866 3 10 3C6.13401 3 3 6.13401 3 10C3 13.866 6.13401 17 10 17Z" fill="#ff4a75"/></g><rect x="156.28846153846152" y="364.6730769230769" width="14.884615384615385" height="14.884615384615385" fill="#ffffff"/><circle cx="160.01" cy="375.84000000000003" r="3.72" fill="#ffa2b8"/><rect x="186.0576923076923" y="364.6730769230769" width="14.884615384615385" height="14.884615384615385" fill="#ffffff"/><g transform="translate(186.06,372.12) scale(0.372) rotate(0)"><path fill-rule="evenodd" clip-rule="evenodd" d="M10 20C15.5228 20 20 15.5228 20 10C20 4.47715 15.5228 0 10 0C4.47715 0 0 4.47715 0 10C0 15.5228 4.47715 20 10 20ZM10 17C13.866 17 17 13.866 17 10C17 6.13401 13.866 3 10 3C6.13401 3 3 6.13401 3 10C3 13.866 6.13401 17 10 17Z" fill="#8d7c8e"/></g><rect x="305.13461538461536" y="364.6730769230769" width="14.884615384615385" height="14.884615384615385" fill="#ffffff"/><g transform="translate(305.13,372.12) scale(0.372) rotate(0)"><path fill-rule="evenodd" clip-rule="evenodd" d="M10 20C15.5228 20 20 15.5228 20 10C20 4.47715 15.5228 0 10 0C4.47715 0 0 4.47715 0 10C0 15.5228 4.47715 20 10 20ZM10 17C13.866 17 17 13.866 17 10C17 6.13401 13.866 3 10 3C6.13401 3 3 6.13401 3 10C3 13.866 6.13401 17 10 17Z" fill="#ffa8bc"/></g><rect x="424.21153846153845" y="364.6730769230769" width="14.884615384615385" height="14.884615384615385" fill="#ffffff"/><circle cx="427.93" cy="368.39000000000004" r="3.72" fill="#503552"/><circle cx="435.37" cy="375.84000000000003" r="3.72" fill="#d0c9d1"/><rect x="453.9807692307692" y="364.6730769230769" width="14.884615384615385" height="14.884615384615385" fill="#ffffff"/><circle cx="457.70000000000005" cy="368.39000000000004" r="3.72" fill="#ffbaca"/><circle cx="465.14000000000004" cy="368.39000000000004" r="3.72" fill="#cac2cb"/><g transform="translate(453.98,372.12) scale(0.372) rotate(0)"><path fill-rule="evenodd" clip-rule="evenodd" d="M10 20C15.5228 20 20 15.5228 20 10C20 4.47715 15.5228 0 10 0C4.47715 0 0 4.47715 0 10C0 15.5228 4.47715 20 10 20ZM10 17C13.866 17 17 13.866 17 10C17 6.13401 13.866 3 10 3C6.13401 3 3 6.13401 3 10C3 13.866 6.13401 17 10 17Z" fill="#b1a5b1"/></g><rect x="513.5192307692308" y="364.6730769230769" width="14.884615384615385" height="14.884615384615385" fill="#ffffff"/><rect x="632.5961538461539" y="364.6730769230769" width="14.884615384615385" height="14.884615384615385" fill="#ffffff"/><g transform="translate(640.04,372.12) scale(0.372) rotate(0)"><path fill-rule="evenodd" clip-rule="evenodd" d="M10 20C15.5228 20 20 15.5228 20 10C20 4.47715 15.5228 0 10 0C4.47715 0 0 4.47715 0 10C0 15.5228 4.47715 20 10 20ZM10 17C13.866 17 17 13.866 17 10C17 6.13401 13.866 3 10 3C6.13401 3 3 6.13401 3 10C3 13.866 6.13401 17 10 17Z" fill="#5f4761"/></g><rect x="662.3653846153846" y="364.6730769230769" width="14.884615384615385" height="14.884615384615385" fill="#ffffff"/></g></svg>